<svg width="38" height="32" viewBox="0 0 38 32" fill="none" xmlns="http://www.w3.org/2000/svg">
<path fill-rule="evenodd" clip-rule="evenodd" d="M37.0404 16.6698C37.0404 16.3018 36.734 16.0031 36.3551 16.0031H26.4995L25.3181 13.7052C25.1913 13.4592 24.9282 13.3125 24.6417 13.3399C24.3608 13.3652 24.1237 13.5559 24.0462 13.8205L22.0397 20.653L19.2061 8.52329C19.1349 8.22263 18.8621 8.00797 18.5448 8.00464H18.5373C18.2235 8.00464 17.9493 8.21263 17.8726 8.50929L15.947 16.0031H11.6853C11.3063 16.0031 11 16.3018 11 16.6698C11 17.0378 11.3063 17.3364 11.6853 17.3364H16.4822C16.7967 17.3364 17.0701 17.1284 17.1469 16.8318L18.5065 11.5426L21.2955 23.4843C21.3654 23.781 21.632 23.995 21.9452 24.003H21.9637C22.2686 24.003 22.5386 23.8063 22.6229 23.5196L24.8795 15.8345L25.4627 16.9685C25.5792 17.1944 25.8163 17.3371 26.076 17.3371H36.3551C36.734 17.3364 37.0404 17.0378 37.0404 16.6698Z" fill="white"/>
<path fill-rule="evenodd" clip-rule="evenodd" d="M35.0984 14.607C35.4424 14.7657 35.8494 14.623 36.0112 14.2897C37.8682 10.4798 37.0548 5.91585 33.9896 2.93324C32.0475 1.04462 29.4661 0.00463867 26.7209 0.00463867C23.975 0.00463867 21.3943 1.04528 19.4776 2.91058L18.4976 3.77256L17.5424 2.93391C15.601 1.04528 13.0196 0.00530559 10.2744 0.00530559C7.52917 0.00530559 4.94775 1.04528 3.00638 2.93391C-1.00178 6.8325 -1.00178 13.177 3.00432 17.0736L18.0111 31.8073C18.1399 31.9333 18.3147 32.0046 18.4976 32.0046C18.6806 32.0046 18.8554 31.934 18.9842 31.8073L31.2067 19.8076C31.4733 19.5456 31.4712 19.1236 31.2026 18.8642C30.9333 18.6056 30.5002 18.6069 30.2336 18.8682L18.4976 30.39L3.97535 16.1323C2.29301 14.4957 1.36583 12.319 1.36583 10.0044C1.36583 7.68915 2.29301 5.51319 3.97535 3.87589C7.449 0.496629 13.1004 0.497295 16.5988 3.89922L18.0385 5.1652C18.2996 5.39519 18.6971 5.39519 18.9581 5.1652L20.4226 3.87589C22.1049 2.23926 24.3423 1.33728 26.7216 1.33728C29.1009 1.33728 31.3383 2.23859 33.0206 3.87589C35.6781 6.46117 36.3819 10.4164 34.7735 13.719C34.6105 14.0517 34.7564 14.449 35.0984 14.607Z" fill="white"/>
</svg>
