<svg width="30" height="33" viewBox="0 0 30 33" fill="none" xmlns="http://www.w3.org/2000/svg">
<path d="M8.097 18.2588C7.806 18.7798 7.938 19.4328 8.408 19.7988L9.80099 20.8837C10.297 21.2707 11.007 21.2107 11.431 20.7447L12.249 19.8488L13.427 20.8437C13.671 21.0507 13.987 21.1527 14.305 21.1247C14.624 21.0977 14.918 20.9417 15.125 20.6977L17.369 18.0458C16.664 17.5258 16.098 16.8338 15.741 16.0259C15.462 15.4009 15.306 14.7089 15.306 13.9809C15.306 11.202 17.567 8.94107 20.347 8.94107C20.914 8.94107 21.46 9.03607 21.97 9.21007C22.685 9.45507 23.326 9.85507 23.859 10.3701L26.689 7.02217C27.119 6.51417 27.054 5.75317 26.546 5.32418L25.968 4.83619L26.265 4.5132C26.488 4.27121 26.599 3.95022 26.578 3.62223C26.557 3.29524 26.404 2.99025 26.154 2.77926L23.654 0.667318C23.404 0.455328 23.078 0.355328 22.753 0.389328C22.427 0.422328 22.13 0.587328 21.929 0.844318L21.656 1.19431L21.082 0.709318C20.574 0.280338 19.812 0.344328 19.385 0.852318L7.734 14.6339C7.339 15.1009 7.35699 15.7879 7.77499 16.2349L8.68599 17.2098L8.097 18.2588Z" fill="#ECEFF4"/>
<path d="M25.2414 15.1758C24.9524 16.3598 24.2454 17.3827 23.2864 18.0737C24.6454 19.7987 25.9384 22.3086 25.9384 25.6475V29.0094H9.0774V28.7974L14.6234 26.7684V25.7355C14.6234 25.0695 14.0834 24.5305 13.4184 24.5305H1.89641C1.23041 24.5305 0.691406 25.0695 0.691406 25.7355V26.7684L5.7044 28.6064V30.0223C5.7044 31.3273 6.7614 32.3843 8.0654 32.3843H26.9484C28.2544 32.3843 29.3084 31.3263 29.3084 30.0233V25.6485C29.3104 20.8246 27.2084 17.3627 25.2414 15.1758Z" fill="#ECEFF4"/>
<path d="M20.3418 10.0684C18.1818 10.0684 16.4258 11.8253 16.4258 13.9853C16.4258 16.1452 18.1818 17.9021 20.3418 17.9021C22.5018 17.9021 24.2598 16.1452 24.2598 13.9853C24.2598 11.8233 22.5018 10.0684 20.3418 10.0684Z" fill="#ECEFF4"/>
</svg>
