<svg width="34" height="22" viewBox="0 0 34 22" fill="none" xmlns="http://www.w3.org/2000/svg">
<path d="M33.65 6.00476C33.65 6.55701 33.0579 7.00476 32.3276 7.00476C31.5986 7.00476 31.0052 7.45349 31.0052 8.00476C31.0052 8.45691 31.0162 8.90906 31.0272 9.35779C31.093 12.0853 31.1615 14.9061 28.662 16.8314C26.763 18.2938 23.6365 19.0048 19.1037 19.0048C18.3734 19.0048 17.7813 18.557 17.7813 18.0048C17.7813 17.4525 18.3734 17.0048 19.1037 17.0048C22.8901 17.0048 25.3993 16.4896 26.7746 15.4301C28.4967 14.1034 28.4444 11.9213 28.383 9.39441C28.3714 8.93396 28.3604 8.46912 28.3604 8.00476C28.3604 7.12158 28.8771 6.33453 29.6828 5.78503V5.00476C29.6828 3.35046 27.9033 2.00476 25.7157 2.00476C23.7186 2.00476 22.0784 3.12994 21.8048 4.58386C23.391 5.68164 24.3933 7.25433 24.3933 9.00476C24.3933 9.55701 23.8012 10.0048 23.0709 10.0048C22.3406 10.0048 21.7485 9.55701 21.7485 9.00476C21.7485 6.79919 19.3756 5.00476 16.4589 5.00476H13.8142C9.02051 5.00476 4.9255 4.01404 2.82311 3.39099C2.67217 4.0592 2.57532 4.99146 2.76604 6.00476H9.847C10.5773 6.00476 11.1694 6.45251 11.1694 7.00476C11.1694 7.55701 10.5773 8.00476 9.847 8.00476H3.55952C3.70884 8.2359 3.8768 8.46594 4.07382 8.69226C4.17592 8.80957 4.30982 8.91272 4.42242 9.02539C4.46899 9.02161 4.50959 9.00476 4.55745 9.00476H13.8142C14.5445 9.00476 15.1366 9.45251 15.1366 10.0048C15.1366 10.557 14.5445 11.0048 13.8142 11.0048H7.42112C9.94136 12.1183 13.4268 12.7922 17.8659 13.0067C17.8867 13.0077 17.8941 13.0246 17.9124 13.0287C18.5056 13.074 19.0024 13.3988 19.0902 13.8632C19.1935 14.41 18.6911 14.9164 17.9686 14.9945L10.2803 15.8251L11.9416 19.5946L13.2227 19.1102C13.8768 18.8627 14.6704 19.0643 14.9971 19.5575C15.3238 20.0516 15.0591 20.6522 14.4056 20.8993L11.7609 21.8993C11.5749 21.9696 11.3721 22.0048 11.1694 22.0048C10.9976 22.0048 10.8259 21.9794 10.6632 21.9286C10.3093 21.8177 10.0362 21.5961 9.9148 21.3212L7.27003 15.3212C7.14605 15.0399 7.19383 14.7313 7.39981 14.4789C7.60579 14.2269 7.9493 14.0565 8.33736 14.015L9.54224 13.8848C6.04167 12.9991 3.45282 11.6303 1.84487 9.76941C-1.37974 6.03699 0.585117 1.83923 0.67035 1.66248C0.798843 1.3949 1.07326 1.18201 1.42259 1.07654C1.77062 0.969604 2.16449 0.9823 2.50284 1.10974C2.5532 1.12878 7.61612 3.00476 13.8142 3.00476H16.4589C17.5218 3.00476 18.5349 3.1662 19.4622 3.45416C20.331 1.45886 22.7902 0.00476074 25.7157 0.00476074C29.3613 0.00476074 32.3276 2.24792 32.3276 5.00476C33.0579 5.00476 33.65 5.45251 33.65 6.00476Z" fill="white"/>
</svg>
