<svg width="32" height="27" viewBox="0 0 32 27" fill="none" xmlns="http://www.w3.org/2000/svg">
<path fill-rule="evenodd" clip-rule="evenodd" d="M29.187 12.4159L27.9601 8.29887C26.4985 8.63297 25.0368 7.93077 24.3131 6.44987C19.2243 7.82597 12.6683 6.82077 8.1986 9.22197C8.4015 9.96497 8.381 10.7514 8.1396 11.4828C7.8982 12.2141 7.4467 12.8579 6.8416 13.3333L7.9724 17.1531C9.6461 16.717 10.6356 17.6684 11.1755 18.9312C12.7294 18.3953 14.3328 18.0159 15.9618 17.7986C12.9199 15.6382 12.6937 9.11997 17.4206 8.66697C21.0959 8.31587 22.5094 11.541 22.5094 14.2083C20.1601 14.9643 19.1169 17.4872 19.6484 19.642C15.6311 19.8628 11.478 20.112 7.5258 23.003L3.85052 10.1224C9.451 3.83357 15.1929 7.14077 23.5611 4.52447L23.1964 3.22195C16.3265 5.69107 7.3392 2.24508 2.16556 9.73447L5.27538 20.1913L3.57911 21.2531L0 8.96147C7.3505 -1.10744 17.1945 4.51597 24.3131 0.384766L25.4015 3.87037C26.3852 3.46747 27.3434 3.00509 28.271 2.48576L32 15.4881C30.8994 16.6255 29.5888 17.5381 28.141 18.1752C27.2505 16.3432 27.6123 13.3503 29.187 12.4159ZM18.5204 21.3239C21.9525 21.3239 22.0401 26.7377 18.7578 26.7377C14.8677 26.7377 15.1533 21.3239 18.5204 21.3239ZM23.8919 15.5278C27.7339 15.5278 27.83 21.5872 24.1576 21.5872C19.7897 21.5872 20.112 15.5278 23.8806 15.5278H23.8919Z" fill="#ECEFF4"/>
</svg>
