<svg width="32" height="20" viewBox="0 0 32 20" fill="none" xmlns="http://www.w3.org/2000/svg">
<path fill-rule="evenodd" clip-rule="evenodd" d="M31.4461 6.25036C31.2145 6.32426 29.9987 6.69076 28.3516 7.19086L28.5658 11.1406C29.8222 11.7231 29.8164 13.698 28.5832 14.2663L29.4516 18.9803L26.3311 19.2048L27.0693 14.3032C25.7116 13.8003 25.6711 11.9277 26.8029 11.2401L26.7653 7.67116L26.6032 7.71946L24.2179 8.43836C20.0756 9.68576 15.7045 10.9957 15.7045 10.9957C15.7045 10.9957 1.39865 6.97496 0.591013 6.73346C-0.216617 6.49186 0.0381126 5.43486 0.0381126 5.43486L15.0908 0.00476074L31.9672 5.00016C31.9672 5.00016 32.1959 6.00886 31.4461 6.25036ZM15.7537 12.2914L23.7027 10.237V16.4883C20.6429 19.3668 11.2813 18.9576 7.6021 16.6361L7.7034 10.2768L15.7537 12.2914Z" fill="#ECEFF4"/>
</svg>
