<svg width="32" height="30" viewBox="0 0 32 30" fill="none" xmlns="http://www.w3.org/2000/svg">
<path d="M0 6.28943V13.7863C0 14.304 0.41974 14.7238 0.93748 14.7238C1.45522 14.7238 1.87496 14.304 1.87496 13.7863L1.92909 3.22729C0.78892 3.77546 0 4.94194 0 6.28943Z" fill="#ECEFF4"/>
<path d="M30.0703 3.22729L30.1244 11.798V13.7863C30.1244 14.304 30.5442 14.7238 31.0619 14.7238C31.5797 14.7238 31.9994 14.304 31.9994 13.7863V6.28943C31.9994 4.94194 31.2105 3.77546 30.0703 3.22729Z" fill="#ECEFF4"/>
<path d="M25.3874 0.00463867H6.621C5.07026 0.00463867 3.80859 1.2663 3.80859 2.81708V22.8978C3.80859 24.1509 4.63258 25.2149 5.76712 25.5773V26.9189C5.76712 27.1255 5.79255 27.3263 5.83937 27.5187C6.1097 28.6297 7.1125 29.4572 8.3054 29.4572C9.4745 29.4572 10.461 28.6625 10.7544 27.5852C10.8123 27.3727 10.8438 27.1494 10.8438 26.9189V25.7102H21.1647V26.9189C21.1647 27.1494 21.1962 27.3727 21.2541 27.5852C21.5476 28.6625 22.534 29.4572 23.7031 29.4572C24.896 29.4572 25.8988 28.6297 26.1691 27.5187C26.216 27.3263 26.2414 27.1255 26.2414 26.9189V25.5772C27.3759 25.2148 28.1998 24.1509 28.1998 22.8977V2.81708C28.1998 1.2663 26.9382 0.00463867 25.3874 0.00463867ZM9.7766 20.8442C9.7766 21.362 9.3569 21.7817 8.8391 21.7817C8.3214 21.7817 7.9016 21.362 7.9016 20.8442V18.5958C7.9016 18.078 8.3214 17.6583 8.8391 17.6583C9.3569 17.6583 9.7766 18.078 9.7766 18.5958V20.8442ZM24.1068 20.8443C24.1068 21.362 23.6871 21.7818 23.1693 21.7818C22.6516 21.7818 22.2318 21.362 22.2318 20.8443V18.5958C22.2318 18.0781 22.6516 17.6584 23.1693 17.6584C23.6871 17.6584 24.1068 18.0781 24.1068 18.5958V20.8443ZM25.3874 13.1147H6.621V6.17484H25.3874V13.1147Z" fill="#ECEFF4"/>
</svg>
