<svg width="38" height="30" viewBox="0 0 38 30" fill="none" xmlns="http://www.w3.org/2000/svg">
<path d="M37.8664 11.929L35.6163 6.31907L36.5997 3.86724C36.8434 3.25891 36.7482 2.52491 36.3622 2.04456L35.0956 0.465526C34.7084 -0.0148165 34.1208 -0.130469 33.6335 0.169456L31.1001 1.74849C30.9789 1.82482 30.8676 1.92429 30.7711 2.04456L28.3825 5.02145L24.6332 7.3584L23.9331 5.61282C23.7178 5.07774 23.2799 4.74003 22.8 4.74003H20.2667C20.0168 4.74003 19.7719 4.83255 19.5641 5.00526L16.2304 7.77552L13.2394 6.84336L13.7997 5.44628C14.1127 4.66601 13.8591 3.71767 13.2332 3.32753L10.6999 1.74849C10.2706 1.48249 9.75729 1.53955 9.37383 1.89807L4.39746 6.5496L1.9668 8.06465C1.53757 8.33219 1.26667 8.87884 1.26667 9.47715V12.6352C0.566536 12.6352 0 13.3422 0 14.2143V17.3723C0 17.6838 0.0742188 17.9891 0.21276 18.2482L2.74609 22.9853C2.96628 23.3963 3.32747 23.6561 3.72331 23.6854C4.12038 23.7178 4.5026 23.5127 4.76113 23.1372L6.00059 21.3354C6.06862 21.2374 6.12552 21.1295 6.17253 21.0138L6.60671 19.9313C6.63639 19.9791 6.66979 20.0246 6.70443 20.0678L7.97109 21.6468C8.35827 22.1287 8.94583 22.2459 9.4332 21.9429L11.1501 20.8727L12.6667 22.7633V25.2675C12.6667 25.8658 12.9376 26.4125 13.3668 26.68L15.9001 28.2591C16.0758 28.3685 16.27 28.4256 16.4667 28.4256H22.8C22.9967 28.4256 23.1909 28.3685 23.3665 28.2591L25.8999 26.68C26.1448 26.5274 26.3439 26.2791 26.4664 25.9738L26.9476 24.7748L29.1333 27.5004V28.4256C29.1333 29.2976 29.6999 30.0046 30.4 30.0046H31.6667C32.3668 30.0046 32.9333 29.2976 32.9333 28.4256V27.1025L34.1344 22.6091C34.2866 22.0416 34.1678 21.4155 33.8289 20.993L31.9413 18.6399L32.6983 16.7509L32.9989 17.872C33.104 18.269 33.3329 18.5975 33.6335 18.7848L36.1668 20.3639C36.5602 20.6067 37.0253 20.5828 37.3988 20.2945C37.7724 20.0069 38 19.4988 38 18.9514V12.6352C38 12.39 37.9542 12.1479 37.8664 11.929ZM35.4667 16.3962L35.2354 16.2528L34.1344 12.1356C33.9724 11.5304 33.5345 11.1055 33.0236 11.06C32.4967 11.0269 32.0291 11.3584 31.8003 11.929L29.2669 18.2451C29.0232 18.8535 29.1185 19.5875 29.5044 20.0678L31.4836 22.5358L30.7958 25.1079L27.4956 20.993C27.2086 20.6353 26.8041 20.4718 26.3971 20.5505C25.9951 20.6322 25.6488 20.9491 25.4669 21.4032L24.3895 24.091L22.5007 25.2675H16.766L15.2 24.2914V22.1094C15.2 21.6908 15.0664 21.2891 14.8289 20.993L12.2956 17.8349C11.9084 17.3538 11.3208 17.2374 10.8335 17.5389L9.11654 18.609L8.86667 18.2976V17.3723C8.86667 16.5836 8.40033 15.9159 7.77318 15.8079L6.4793 15.5851C5.93503 15.4957 5.41549 15.8396 5.17305 16.4433L3.97689 19.4271L3.92617 19.4996L2.53333 16.8943V15.7933C3.23346 15.7933 3.8 15.0863 3.8 14.2143V10.4532L5.6332 9.31061C5.70124 9.2682 5.76556 9.21808 5.82617 9.16103L10.2669 5.00989L10.9671 5.44628L10.2669 7.19186C10.095 7.62054 10.0888 8.12247 10.2496 8.55809C10.4092 8.99295 10.7197 9.31369 11.0932 9.43011L16.1599 11.0092C16.505 11.1148 16.8712 11.0369 17.1693 10.791L20.6501 7.89811H22.017L22.9336 10.1834C23.2478 10.9644 24.0073 11.2798 24.6332 10.8896L29.6999 7.73157C29.8211 7.65524 29.9324 7.55578 30.0289 7.4355L32.4175 4.45861L33.9007 3.53339L33.0669 5.61282C32.8888 6.05769 32.8888 6.58044 33.0669 7.02532L35.4667 13.0076V16.3962Z" fill="#ECEFF4"/>
</svg>
