<svg width="27" height="33" viewBox="0 0 27 33" fill="none" xmlns="http://www.w3.org/2000/svg">
<path d="M26.3761 7.72877L14.0122 0.534676C13.6686 0.334796 13.2406 0.334796 12.897 0.534676L0.53301 7.72877C0.20257 7.92107 0 8.26947 0 8.64547V12.7522C0 21.4018 5.1096 29.302 13.0608 32.3128C13.3139 32.4087 13.595 32.4088 13.8483 32.3128C21.7802 29.3095 26.9091 21.4265 26.9091 12.7522V8.64547C26.9092 8.26937 26.7067 7.92107 26.3761 7.72877ZM18.8426 13.9879L12.0073 20.6733C11.5814 21.0898 10.8909 21.0898 10.465 20.6733L8.0661 18.3271C7.6402 17.9106 7.6402 17.2352 8.0661 16.8186C8.492 16.4021 9.1826 16.4021 9.6084 16.8186L11.2361 18.4105L17.3003 12.4794C17.7261 12.0629 18.4167 12.0629 18.8426 12.4794C19.2686 12.896 19.2686 13.5714 18.8426 13.9879Z" fill="#ECEFF4"/>
</svg>
