<svg width="28" height="28" viewBox="0 0 28 28" fill="none" xmlns="http://www.w3.org/2000/svg">
<path d="M20.8253 22.2871H20.8394M21.3885 17.5996H22.2334C23.5455 17.5996 24.2015 17.5996 24.7191 17.8374C25.4091 18.1546 25.9574 18.763 26.2432 19.5287C26.4575 20.103 26.4575 20.831 26.4575 22.2871C26.4575 23.7432 26.4575 24.4712 26.2432 25.0455C25.9574 25.8112 25.4091 26.4196 24.7191 26.7368C24.2015 26.9746 23.5455 26.9746 22.2334 26.9746H5.33691C4.02479 26.9746 3.36872 26.9746 2.8512 26.7368C2.16119 26.4196 1.61297 25.8112 1.32715 25.0455C1.11279 24.4712 1.11279 23.7432 1.11279 22.2871C1.11279 20.831 1.11279 20.103 1.32715 19.5287C1.61297 18.763 2.16119 18.1546 2.8512 17.8374C3.36872 17.5996 4.02479 17.5996 5.33691 17.5996H6.18173M13.7851 19.1621V1.97461M13.7851 19.1621L9.56102 14.4746M13.7851 19.1621L18.0093 14.4746" stroke="black" stroke-width="2" stroke-linecap="round" stroke-linejoin="round"/>
</svg>
