<svg width="27" height="27" viewBox="0 0 27 27" fill="none" xmlns="http://www.w3.org/2000/svg">
<g clip-path="url(#clip0_688_168)">
<path d="M13.8831 26.2339C21.1274 26.2339 27.0001 20.3613 27.0001 13.117C27.0001 5.87267 21.1274 0 13.8831 0C6.63878 0 0.766113 5.87267 0.766113 13.117C0.766113 20.3613 6.63878 26.2339 13.8831 26.2339Z" fill="url(#paint0_linear_688_168)"/>
<path fill-rule="evenodd" clip-rule="evenodd" d="M6.70339 12.9786C10.5273 11.3126 13.0771 10.2143 14.3529 9.68359C17.9956 8.16846 18.7526 7.90527 19.2459 7.89658C19.3544 7.89467 19.597 7.92156 19.7542 8.04908C19.8869 8.15676 19.9234 8.30221 19.9409 8.4043C19.9584 8.50639 19.9801 8.73896 19.9628 8.92067C19.7654 10.9948 18.9113 16.0281 18.4767 18.3511C18.2929 19.3341 17.9308 19.6636 17.5803 19.6959C16.8186 19.766 16.2402 19.1925 15.5024 18.7089C14.3479 17.9521 13.6957 17.481 12.5751 16.7426C11.2801 15.8891 12.1196 15.4201 12.8576 14.6535C13.0508 14.4529 16.407 11.4002 16.4719 11.1233C16.4801 11.0886 16.4876 10.9595 16.4109 10.8914C16.3342 10.8232 16.221 10.8465 16.1393 10.865C16.0235 10.8913 14.1793 12.1103 10.6065 14.522C10.083 14.8815 9.60886 15.0566 9.18403 15.0475C8.71568 15.0373 7.81478 14.7826 7.14505 14.5649C6.32359 14.2979 5.67072 14.1567 5.72757 13.7033C5.75718 13.4671 6.08246 13.2255 6.70339 12.9786Z" fill="white"/>
</g>
<defs>
<linearGradient id="paint0_linear_688_168" x1="13.8831" y1="0" x2="13.8831" y2="26.0394" gradientUnits="userSpaceOnUse">
<stop stop-color="#2AABEE"/>
<stop offset="1" stop-color="#229ED9"/>
</linearGradient>
<clipPath id="clip0_688_168">
<rect width="26.2339" height="26.2339" fill="white" transform="translate(0.766113)"/>
</clipPath>
</defs>
</svg>
