<svg width="27" height="27" viewBox="0 0 27 27" fill="none" xmlns="http://www.w3.org/2000/svg">
<g clip-path="url(#clip0_688_169)">
<path d="M0.0273438 12.5923C0.0273438 6.65621 0.0273438 3.6882 1.87144 1.8441C3.71554 0 6.68355 0 12.6196 0H13.669C19.6051 0 22.5731 0 24.4172 1.8441C26.2613 3.6882 26.2613 6.65621 26.2613 12.5923V13.6417C26.2613 19.5777 26.2613 22.5457 24.4172 24.3899C22.5731 26.2339 19.6051 26.2339 13.669 26.2339H12.6196C6.68355 26.2339 3.71554 26.2339 1.87144 24.3899C0.0273438 22.5457 0.0273438 19.5777 0.0273438 13.6417V12.5923Z" fill="#0077FF"/>
<path d="M13.9862 18.8994C8.00705 18.8994 4.59669 14.8003 4.45459 7.97949H7.44963C7.54801 12.9858 9.75598 15.1064 11.5049 15.5436V7.97949H14.3252V12.2972C16.0522 12.1113 17.8665 10.1438 18.4787 7.97949H21.2989C20.8288 10.6466 18.8613 12.6142 17.4621 13.423C18.8613 14.0789 21.1022 15.795 21.9548 18.8994H18.8504C18.1836 16.8225 16.5223 15.2157 14.3252 14.9971V18.8994H13.9862Z" fill="white"/>
</g>
<defs>
<clipPath id="clip0_688_169">
<rect width="26.2339" height="26.2339" fill="white" transform="translate(0.0273438)"/>
</clipPath>
</defs>
</svg>
