<svg width="27" height="27" viewBox="0 0 27 27" fill="none" xmlns="http://www.w3.org/2000/svg">
<path d="M0 26.2339L1.84402 19.4973C0.706129 17.5254 0.108215 15.29 0.109308 12.9978C0.112587 5.83159 5.94416 0 13.1093 0C16.5864 0.00109308 19.8503 1.35542 22.3054 3.81267C24.7593 6.26991 26.1104 9.53604 26.1093 13.0099C26.106 20.1772 20.2744 26.0088 13.1093 26.0088C10.9341 26.0077 8.79054 25.4622 6.89186 24.426L0 26.2339ZM7.21104 22.0726C9.04304 23.1602 10.792 23.8117 13.1049 23.8128C19.06 23.8128 23.9111 18.9661 23.9144 13.0077C23.9166 7.03726 19.0884 2.19709 13.1137 2.19491C7.1542 2.19491 2.3064 7.04163 2.30421 12.9989C2.30312 15.431 3.0158 17.2521 4.21273 19.1573L3.12074 23.1449L7.21104 22.0726ZM19.6579 16.1C19.577 15.9644 19.3606 15.8836 19.0349 15.7207C18.7102 15.5578 17.1132 14.7719 16.8148 14.6637C16.5175 14.5555 16.3011 14.5008 16.0836 14.8266C15.8671 15.1512 15.2441 15.8836 15.055 16.1C14.8659 16.3164 14.6757 16.3437 14.351 16.1809C14.0264 16.018 12.9792 15.6759 11.7386 14.5686C10.7734 13.7072 10.1208 12.6437 9.93171 12.3179C9.74261 11.9933 9.91204 11.8173 10.0738 11.6555C10.2203 11.5101 10.3985 11.2762 10.5613 11.086C10.7264 10.898 10.7799 10.7625 10.8892 10.545C10.9975 10.3285 10.9439 10.1383 10.8619 9.97546C10.7799 9.81368 10.1307 8.2145 9.86066 7.56412C9.59614 6.93123 9.32833 7.01649 9.12939 7.00665L8.50634 6.99572C8.28991 6.99572 7.93794 7.07661 7.64062 7.40235C7.3433 7.72808 6.50382 8.51292 6.50382 10.1121C6.50382 11.7113 7.66795 13.2558 7.82972 13.4722C7.99259 13.6887 10.1197 16.9701 13.3782 18.3769C14.1532 18.7114 14.7587 18.9114 15.2299 19.0611C16.0081 19.3082 16.7165 19.2732 17.2761 19.1901C17.9003 19.0972 19.1977 18.4042 19.4688 17.6456C19.7399 16.8859 19.7399 16.2355 19.6579 16.1Z" fill="#25D366"/>
</svg>
