<svg xmlns="http://www.w3.org/2000/svg" width="75" height="46" fill="none"><path fill="#fff" d="M7.635 34.008c.394.075.591.373.591.896 0 .288-.048.565-.144.832-.202.693-.554 1.259-1.056 1.696a7.598 7.598 0 0 1-1.792 1.152c-.671.32-1.312.485-1.92.496a.222.222 0 0 1-.095-.016c-.054 0-.08-.005-.08-.016a4.857 4.857 0 0 0-.352-1.024 14.75 14.75 0 0 0-.624-1.168c-.395-.672-.662-1.2-.8-1.584-.374-1.035-.56-2.043-.56-3.024 0-.47.037-.907.111-1.312.118-.63.326-1.221.624-1.776a4.688 4.688 0 0 1 1.137-1.424 7.254 7.254 0 0 1 2.144-1.184 6.242 6.242 0 0 1 2.383-.384c.043 0 .064.048.064.144v.064c-.01.405-.128 1.03-.351 1.872-.224.832-.395 1.387-.513 1.664-.064.16-.149.24-.256.24-.064 0-.117-.032-.16-.096a.708.708 0 0 1-.08-.288c-.063-1.024-.325-1.904-.784-2.64-.277.085-.56.235-.848.448a2.782 2.782 0 0 0-.752.816 5.113 5.113 0 0 0-.575 1.424 6.997 6.997 0 0 0-.176 1.568c0 .17.005.293.016.368l.095-.064c.363-.213.79-.368 1.28-.464a7.65 7.65 0 0 1 1.473-.144c.416 0 .768.032 1.056.096.298.053.447.123.447.208 0 .661-.346 1.323-1.04 1.984-.149.15-.26.224-.335.224-.107 0-.176-.123-.208-.368-.096-.768-.608-1.152-1.536-1.152-.385 0-.784.059-1.2.176.106.96.389 1.952.848 2.976l.511.928c.47.768.769 1.397.896 1.888.14-.075.326-.23.56-.464.3-.341.496-.827.592-1.456.011-.064.016-.17.016-.32 0-.512-.154-.795-.463-.848-.096-.021-.048-.101.144-.24.202-.15.351-.245.447-.288a5.84 5.84 0 0 0 .337-.16c.18-.096.352-.165.511-.208a.85.85 0 0 1 .417-.048Zm11.659 4.032c.245 0 .368.08.368.24v.016c0 .395-.118 1.04-.352 1.936-.224.896-.395 1.493-.512 1.792-.064.16-.15.24-.256.24-.064 0-.123-.032-.176-.096a.62.62 0 0 1-.08-.288 5.542 5.542 0 0 0-.944-2.88h-5.6c-.235.32-.448.725-.64 1.216a5.626 5.626 0 0 0-.32 1.664c-.011.256-.091.384-.24.384-.107 0-.192-.08-.256-.24-.15-.341-.331-.853-.544-1.536-.214-.683-.326-1.216-.336-1.6v-.032l.016-.016c.053-.096.192-.203.416-.32.224-.128.49-.235.8-.32a5.788 5.788 0 0 1-.016-.512c0-.619.037-1.168.112-1.648.085-.619.202-1.243.352-1.872.16-.63.474-1.37.944-2.224.469-.864 1.12-1.648 1.952-2.352a19.774 19.774 0 0 1-.544-1.36 2.733 2.733 0 0 1-.144-.912c.01-.256.138-.47.384-.64.245-.181.501-.32.768-.416.373-.139.634-.208.784-.208.074 0 .117.016.128.048.01.021.005.096-.016.224-.011.117-.011.256 0 .416 0 .49.373 1.584 1.12 3.28.416.96.821 2.16 1.216 3.6.394 1.44.64 2.443.736 3.008.106.587.234 1.056.384 1.408h.496Zm-6.592-2.976c-.022.32-.032.57-.032.752 0 .907.112 1.648.336 2.224h3.424a24.567 24.567 0 0 0-.24-1.584 38.656 38.656 0 0 0-.848-3.36c-.331-1.11-.672-2.037-1.024-2.784-.875.917-1.414 2.501-1.616 4.752Zm16.039 3.552c.085.117-.117.23-.608.336-.48.107-.955.16-1.424.16l-.272-.016c-.192-.01-.288-.48-.288-1.408 0-.245.016-.784.048-1.616l.144-4.4a12.713 12.713 0 0 0-2.208 2.208c-.608.8-.912 1.52-.912 2.16v.56c.032.48.08.89.144 1.232.064.33.165.592.304.784.085.117-.117.23-.608.336-.48.107-.955.16-1.424.16l-.272-.016c-.192-.01-.288-.453-.288-1.328 0-.437.016-.848.048-1.232l.016-.464c0-.203.021-1.072.064-2.608.075-1.92.112-3.28.112-4.08 0-.65-.027-1.12-.08-1.408a1.833 1.833 0 0 0-.384-.848c-.064-.096.032-.23.288-.4.267-.17.587-.32.96-.448.384-.139.698-.197.944-.176.192.01.288.512.288 1.504 0 .405-.016.912-.048 1.52l-.032 1.488c0 .48-.01 1.243-.032 2.288.405-.427.864-.81 1.376-1.152.522-.341 1.11-.677 1.76-1.008l.032-1.12c0-.757-.027-1.285-.08-1.584a1.969 1.969 0 0 0-.4-.912c-.064-.096.037-.23.304-.4s.586-.32.96-.448c.384-.139.699-.197.944-.176.192.01.288.485.288 1.424 0 .213-.021.747-.064 1.6-.01.79-.027 1.84-.048 3.152a409.59 409.59 0 0 0-.016 3.216c0 .8.026 1.456.08 1.968.053.501.181.885.384 1.152Zm8.927.048c.085.117-.117.23-.608.336-.48.096-.955.144-1.424.144l-.272-.016c-.192-.01-.288-.459-.288-1.344 0-.256.016-.816.048-1.68.053-1.408.085-2.432.096-3.072h-2.88c-.01.768-.016 1.6-.016 2.496 0 .8.027 1.456.08 1.968.053.512.181.901.384 1.168.085.117-.117.23-.608.336-.48.096-.955.144-1.424.144l-.272-.016c-.192-.01-.288-.475-.288-1.392 0-.256.016-.8.048-1.632l.032-.736c.01-.395.037-1.301.08-2.72.053-1.419.08-2.416.08-2.992 0-.757-.027-1.285-.08-1.584a1.969 1.969 0 0 0-.4-.912c-.064-.096.037-.23.304-.4s.587-.32.96-.448c.384-.139.699-.197.944-.176.192.01.288.485.288 1.424 0 .224-.021.763-.064 1.616l-.032 2.912h2.896l.048-2.672c0-.65-.027-1.12-.08-1.408a1.833 1.833 0 0 0-.384-.848c-.064-.096.032-.23.288-.4.267-.17.587-.32.96-.448.384-.139.699-.197.944-.176.192.01.288.512.288 1.504 0 .416-.016.928-.048 1.536l-.08 6.112c0 .875.027 1.584.08 2.128.053.544.187.96.4 1.248Zm7.955-4.88c.384.064.576.357.576.88 0 .224-.032.475-.096.752-.192.8-.528 1.44-1.008 1.92-.47.48-1.061.89-1.776 1.232-.704.33-1.381.501-2.032.512a.223.223 0 0 1-.096-.016c-.053 0-.08-.005-.08-.016a4.656 4.656 0 0 0-.336-1.008c-.138-.33-.341-.747-.608-1.248-.362-.661-.608-1.168-.736-1.52-.373-1.056-.56-2.075-.56-3.056 0-.448.038-.875.112-1.28.278-1.45.832-2.517 1.664-3.2a7.475 7.475 0 0 1 2.16-1.184 6.131 6.131 0 0 1 2.368-.384c.043 0 .064.043.064.128v.08c-.021.405-.144 1.019-.368 1.84-.213.821-.373 1.387-.48 1.696-.064.16-.154.24-.272.24-.138 0-.218-.128-.24-.384-.053-.97-.31-1.845-.768-2.624-.704.17-1.242.587-1.616 1.248-.448.8-.661 1.797-.64 2.992 0 1.28.304 2.56.912 3.84.118.256.278.57.48.944.224.427.395.779.512 1.056.128.267.23.55.304.848.118-.075.246-.192.384-.352.139-.16.24-.31.304-.448.256-.459.416-.965.48-1.52a1.524 1.524 0 0 0-.08-.656c-.064-.213-.192-.336-.384-.368-.128-.021-.07-.112.176-.272.246-.16.379-.245.4-.256.054-.021.166-.075.336-.16.182-.096.352-.165.512-.208a.926.926 0 0 1 .432-.048Zm10.27-7.552c.16 0 .24.032.24.096 0 .544-.107 1.232-.32 2.064-.203.821-.379 1.424-.528 1.808-.064.15-.15.224-.256.224-.064 0-.123-.032-.176-.096a.62.62 0 0 1-.08-.288 6.302 6.302 0 0 0-.912-2.88h-1.024c.01.128.016.325.016.592 0 .373-.016.848-.048 1.424-.011.341-.027 1.28-.048 2.816a271.41 271.41 0 0 0-.032 3.536c0 .8.026 1.456.08 1.968.053.512.181.901.384 1.168.085.117-.118.23-.608.336-.48.096-.955.144-1.424.144l-.272-.016c-.192-.01-.288-.475-.288-1.392 0-.256.016-.8.048-1.632l.032-.736c.01-.395.037-1.301.08-2.72.053-1.419.08-2.416.08-2.992 0-.587-.027-1.072-.08-1.456a3.622 3.622 0 0 0-.256-1.04h-1.008c-.448 1.045-.699 2.005-.752 2.88-.011.256-.091.384-.24.384-.107 0-.192-.075-.256-.224a35.551 35.551 0 0 1-.56-1.696c-.203-.704-.304-1.248-.304-1.632 0-.181.192-.32.576-.416.384-.096.816-.16 1.296-.192.48-.032.72-.043.72-.032h5.92Zm8.01 7.552c.865 1.29 1.297 2.725 1.297 4.304 0 .128-.123.261-.368.4a4.465 4.465 0 0 1-.816.368c-.31.096-.555.144-.736.144l-5.328-.016c-.192.01-.288-.432-.288-1.328 0-.235.016-.768.048-1.6l.032-.752c.01-.384.037-1.285.08-2.704.053-1.419.08-2.41.08-2.976 0-.747-.043-1.344-.128-1.792-.075-.459-.224-.843-.448-1.152-.086-.117.122-.23.624-.336.501-.107.986-.16 1.456-.16h.528l4.624-.016.048.048a5.702 5.702 0 0 1-.416 2.064 6.185 6.185 0 0 1-1.104 1.824l-.224.224a5.19 5.19 0 0 0-.544.56.851.851 0 0 0-.192.512c0 .085.026.181.08.288.16.267.453.635.88 1.104.384.427.656.757.816.992Zm-.735 4.272c-.01-.597-.176-1.27-.496-2.016a8.176 8.176 0 0 0-1.36-2.192l-.32-.336a6.25 6.25 0 0 1-.608-.688 1.07 1.07 0 0 1-.208-.608c0-.181.064-.352.192-.512.053-.064.23-.261.528-.592.341-.363.565-.624.672-.784.565-.821.848-1.845.848-3.072 0-.075-.021-.117-.064-.128a.258.258 0 0 0-.16-.016H59.904c.01.128.016.325.016.592 0 .373-.016.848-.048 1.424-.01.33-.027 1.2-.048 2.608a238.006 238.006 0 0 0-.032 3.504c0 .693.01 1.259.032 1.696.032.437.101.81.208 1.12h3.136Zm10.48-8.192a7.235 7.235 0 0 1 .512 3.456c-.107 1.248-.443 2.267-1.008 3.056-.64.896-1.584 1.632-2.832 2.208-.267.16-.603.299-1.008.416-.395.128-.598.16-.608.096a5.46 5.46 0 0 0-.384-1.008c-.16-.33-.368-.72-.624-1.168-.416-.725-.71-1.317-.88-1.776a6.701 6.701 0 0 1-.432-2.432c0-.373.021-.71.064-1.008.17-1.365.554-2.432 1.152-3.2a5.586 5.586 0 0 1 1.696-1.44 8.993 8.993 0 0 1 2.24-.88.877.877 0 0 1 .192-.032c.096 0 .15.01.16.032.085.341.202.672.352.992.15.31.362.704.64 1.184l.336.608c.17.31.314.608.432.896Zm-1.888 6.224c.31-.8.464-1.659.464-2.576a7.442 7.442 0 0 0-.784-3.312c-.17-.341-.347-.656-.528-.944a86.86 86.86 0 0 1-.288-.512c-.15-.277-.283-.533-.4-.768a6.216 6.216 0 0 1-.256-.688c-.139.117-.256.24-.352.368-.31.405-.55.832-.72 1.28-.352.907-.528 1.899-.528 2.976a6.9 6.9 0 0 0 .704 3.04c.085.17.282.533.592 1.088.17.299.341.613.512.944.17.33.304.64.4.928.48-.437.874-1.045 1.184-1.824ZM22.589 19.088c.65.021.976.096.976.224 0 .384-.117 1.024-.352 1.92-.224.907-.395 1.504-.512 1.792-.064.16-.15.24-.256.24-.064 0-.123-.032-.176-.096a.62.62 0 0 1-.08-.288 5.542 5.542 0 0 0-.32-1.632A6.806 6.806 0 0 0 21.293 20H15.629c-.192-.032-.288-.47-.288-1.312 0-.203.01-.507.032-.912l.016-.704.032-.736c.01-.395.037-1.301.08-2.72.053-1.419.08-2.416.08-2.992 0-.757-.027-1.285-.08-1.584a2.047 2.047 0 0 0-.384-.912c-.064-.096.032-.23.288-.4.267-.17.587-.32.96-.448.384-.139.699-.197.944-.176.192.01.288.501.288 1.472 0 .277-.01.619-.032 1.024l-.016.544c-.01.341-.027 1.323-.048 2.944a302.564 302.564 0 0 0-.032 3.52c0 .576.016 1.061.048 1.456.032.384.096.72.192 1.008h2.512c-.01-.459 0-.965.032-1.52l.016-.48c.117-3.701.176-5.936.176-6.704 0-.64-.027-1.104-.08-1.392a1.91 1.91 0 0 0-.368-.848c-.064-.096.032-.23.288-.4.267-.17.587-.32.96-.448.384-.139.699-.197.944-.176.192.01.288.501.288 1.472 0 .277-.01.619-.032 1.024l-.016.544c-.01.33-.027 1.2-.048 2.608a239.412 239.412 0 0 0-.032 3.504c0 .693.01 1.259.032 1.696.032.437.101.816.208 1.136Zm8.994-4.08c.395.075.592.373.592.896 0 .288-.048.565-.144.832-.203.693-.555 1.259-1.056 1.696a7.597 7.597 0 0 1-1.792 1.152c-.672.32-1.312.485-1.92.496a.223.223 0 0 1-.096-.016c-.053 0-.08-.005-.08-.016a4.853 4.853 0 0 0-.352-1.024 14.75 14.75 0 0 0-.624-1.168c-.395-.672-.661-1.2-.8-1.584-.373-1.035-.56-2.043-.56-3.024 0-.47.037-.907.112-1.312.117-.63.325-1.221.624-1.776a4.69 4.69 0 0 1 1.136-1.424 7.255 7.255 0 0 1 2.144-1.184 6.242 6.242 0 0 1 2.384-.384c.043 0 .064.048.064.144v.064c-.01.405-.128 1.03-.352 1.872-.224.832-.395 1.387-.512 1.664-.064.16-.15.24-.256.24-.064 0-.117-.032-.16-.096a.71.71 0 0 1-.08-.288c-.064-1.024-.325-1.904-.784-2.64-.277.085-.56.235-.848.448a2.783 2.783 0 0 0-.752.816 5.112 5.112 0 0 0-.576 1.424 7 7 0 0 0-.176 1.568c0 .17.005.293.016.368l.096-.064c.363-.213.79-.368 1.28-.464a7.65 7.65 0 0 1 1.472-.144c.416 0 .768.032 1.056.096.299.053.448.123.448.208 0 .661-.347 1.323-1.04 1.984-.15.15-.261.224-.336.224-.107 0-.176-.123-.208-.368-.096-.768-.608-1.152-1.536-1.152-.384 0-.784.059-1.2.176.107.96.39 1.952.848 2.976l.512.928c.47.768.768 1.397.896 1.888.139-.075.325-.23.56-.464.299-.341.496-.827.592-1.456.01-.064.016-.17.016-.32 0-.512-.155-.795-.464-.848-.096-.021-.048-.101.144-.24.203-.15.352-.245.448-.288.053-.021.165-.075.336-.16.181-.096.352-.165.512-.208a.85.85 0 0 1 .416-.048Zm9.5 4.656c.084.117-.118.23-.609.336-.48.096-.955.144-1.424.144l-.272-.016c-.192-.01-.288-.459-.288-1.344 0-.256.016-.816.048-1.68.053-1.408.085-2.432.096-3.072h-2.88c-.01.768-.016 1.6-.016 2.496 0 .8.027 1.456.08 1.968.053.512.181.901.384 1.168.085.117-.117.23-.608.336-.48.096-.955.144-1.424.144l-.272-.016c-.192-.01-.288-.475-.288-1.392 0-.256.016-.8.048-1.632l.032-.736c.01-.395.037-1.301.08-2.72.053-1.419.08-2.416.08-2.992 0-.757-.027-1.285-.08-1.584a1.969 1.969 0 0 0-.4-.912c-.064-.096.037-.23.304-.4s.587-.32.96-.448c.384-.139.699-.197.944-.176.192.01.288.485.288 1.424 0 .224-.021.763-.064 1.616l-.032 2.912h2.896l.048-2.672c0-.65-.027-1.12-.08-1.408a1.833 1.833 0 0 0-.384-.848c-.064-.096.032-.23.288-.4.267-.17.587-.32.96-.448.384-.139.699-.197.944-.176.192.01.288.512.288 1.504 0 .416-.016.928-.048 1.536l-.08 6.112c0 .875.027 1.584.08 2.128.053.544.187.96.4 1.248Zm9.714-12.432c.16 0 .24.032.24.096 0 .544-.106 1.232-.32 2.064-.202.821-.378 1.424-.528 1.808-.064.15-.149.224-.256.224-.064 0-.122-.032-.176-.096a.62.62 0 0 1-.08-.288 6.302 6.302 0 0 0-.912-2.88h-1.024c.011.128.016.325.016.592 0 .373-.016.848-.048 1.424-.01.341-.026 1.28-.048 2.816a271.41 271.41 0 0 0-.032 3.536c0 .8.027 1.456.08 1.968.054.512.182.901.384 1.168.086.117-.117.23-.608.336-.48.096-.954.144-1.424.144l-.272-.016c-.192-.01-.288-.475-.288-1.392 0-.256.016-.8.048-1.632l.032-.736.08-2.72c.054-1.419.08-2.416.08-2.992 0-.587-.026-1.072-.08-1.456a3.626 3.626 0 0 0-.256-1.04h-1.008c-.448 1.045-.698 2.005-.752 2.88-.01.256-.09.384-.24.384-.106 0-.192-.075-.256-.224a35.438 35.438 0 0 1-.56-1.696c-.202-.704-.304-1.248-.304-1.632 0-.181.192-.32.576-.416.384-.096.816-.16 1.296-.192.48-.032.72-.043.72-.032h5.92Zm7.148 7.584c.096.01.037.09-.176.24-.203.15-.342.245-.416.288-.512.277-.918.416-1.216.416-.352 0-.63-.08-.832-.24a.836.836 0 0 1-.304-.672c0-.117.026-.267.08-.448.053-.16.117-.299.192-.416.085-.117.202-.25.352-.4a5.63 5.63 0 0 0 1.088-1.376 6.916 6.916 0 0 0 .656-1.696 7.202 7.202 0 0 0 .224-2.336h-2.784c.01.341.005.821-.016 1.44-.011.15-.016.336-.016.56l-.016.816c0 .992.005 1.781.016 2.368l.016 2.384v.544c0 .875.026 1.584.08 2.128.053.544.18.96.384 1.248.096.117-.102.23-.592.336a7.49 7.49 0 0 1-1.44.144l-.272-.016c-.192-.01-.288-.448-.288-1.312 0-.459.016-.88.048-1.264l.016-.448c.01-.81.02-1.845.032-3.104.02-1.27.032-2.384.032-3.344 0-.736-.043-1.333-.128-1.792-.075-.47-.22-.853-.432-1.152-.086-.117.117-.23.608-.336a6.22 6.22 0 0 1 1.44-.144h5.344c.245 0 .368.07.368.208 0 1.237-.203 2.235-.608 2.992-.395.757-.736 1.29-1.024 1.6-.288.31-.46.49-.512.544l-.256.24c-.235.213-.395.41-.48.592a1.335 1.335 0 0 0-.128.576c0 .245.08.443.24.592.17.15.41.23.72.24Z"/></svg>