<svg width="75" height="46" viewBox="0 0 75 46" fill="none" xmlns="http://www.w3.org/2000/svg">
<path d="M7.6345 34.008C8.02917 34.0827 8.2265 34.3813 8.2265 34.904C8.2265 35.192 8.1785 35.4693 8.0825 35.736C7.87983 36.4293 7.52783 36.9947 7.0265 37.432C6.5145 37.88 5.91717 38.264 5.2345 38.584C4.5625 38.904 3.9225 39.0693 3.3145 39.08C3.27183 39.08 3.23983 39.0747 3.2185 39.064C3.16517 39.064 3.1385 39.0587 3.1385 39.048C3.06383 38.7067 2.9465 38.3653 2.7865 38.024C2.6265 37.6827 2.4185 37.2933 2.1625 36.856C1.76783 36.184 1.50117 35.656 1.3625 35.272C0.989165 34.2373 0.802499 33.2293 0.802499 32.248C0.802499 31.7787 0.839832 31.3413 0.914499 30.936C1.03183 30.3067 1.23983 29.7147 1.5385 29.16C1.83717 28.5947 2.21583 28.12 2.6745 27.736C3.3145 27.224 4.02917 26.8293 4.8185 26.552C5.6185 26.264 6.41317 26.136 7.2025 26.168C7.24517 26.168 7.2665 26.216 7.2665 26.312V26.376C7.25583 26.7813 7.1385 27.4053 6.9145 28.248C6.6905 29.08 6.51983 29.6347 6.4025 29.912C6.3385 30.072 6.25317 30.152 6.1465 30.152C6.0825 30.152 6.02917 30.12 5.9865 30.056C5.94383 29.9813 5.91717 29.8853 5.9065 29.768C5.8425 28.744 5.58117 27.864 5.1225 27.128C4.84517 27.2133 4.5625 27.3627 4.2745 27.576C3.9865 27.7787 3.73583 28.0507 3.5225 28.392C3.2665 28.8187 3.0745 29.2933 2.9465 29.816C2.82917 30.328 2.7705 30.8507 2.7705 31.384C2.7705 31.5547 2.77583 31.6773 2.7865 31.752L2.8825 31.688C3.24517 31.4747 3.67183 31.32 4.1625 31.224C4.65317 31.128 5.14383 31.08 5.6345 31.08C6.0505 31.08 6.4025 31.112 6.6905 31.176C6.98917 31.2293 7.1385 31.2987 7.1385 31.384C7.1385 32.0453 6.79183 32.7067 6.0985 33.368C5.94917 33.5173 5.83717 33.592 5.7625 33.592C5.65583 33.592 5.5865 33.4693 5.5545 33.224C5.4585 32.456 4.9465 32.072 4.0185 32.072C3.6345 32.072 3.2345 32.1307 2.8185 32.248C2.92517 33.208 3.20783 34.2 3.6665 35.224L4.1785 36.152C4.64783 36.92 4.9465 37.5493 5.0745 38.04C5.21317 37.9653 5.39983 37.8107 5.6345 37.576C5.93317 37.2347 6.1305 36.7493 6.2265 36.12C6.23717 36.056 6.2425 35.9493 6.2425 35.8C6.2425 35.288 6.08783 35.0053 5.7785 34.952C5.6825 34.9307 5.7305 34.8507 5.9225 34.712C6.12517 34.5627 6.2745 34.4667 6.3705 34.424C6.42383 34.4027 6.53583 34.3493 6.7065 34.264C6.88783 34.168 7.0585 34.0987 7.2185 34.056C7.3785 34.0027 7.51717 33.9867 7.6345 34.008ZM19.2936 38.04C19.539 38.04 19.6616 38.12 19.6616 38.28V38.296C19.6616 38.6907 19.5443 39.336 19.3096 40.232C19.0856 41.128 18.915 41.7253 18.7976 42.024C18.7336 42.184 18.6483 42.264 18.5416 42.264C18.4776 42.264 18.419 42.232 18.3656 42.168C18.323 42.104 18.2963 42.008 18.2856 41.88C18.2323 40.8133 17.9176 39.8533 17.3416 39H11.7416C11.507 39.32 11.2936 39.7253 11.1016 40.216C10.9203 40.7067 10.8136 41.2613 10.7816 41.88C10.771 42.136 10.691 42.264 10.5416 42.264C10.435 42.264 10.3496 42.184 10.2856 42.024C10.1363 41.6827 9.95496 41.1707 9.74162 40.488C9.52829 39.8053 9.41629 39.272 9.40562 38.888C9.40562 38.8773 9.40562 38.8667 9.40562 38.856C9.41629 38.8453 9.42162 38.84 9.42162 38.84C9.47496 38.744 9.61362 38.6373 9.83762 38.52C10.0616 38.392 10.3283 38.2853 10.6376 38.2C10.627 38.0933 10.6216 37.9227 10.6216 37.688C10.6216 37.0693 10.659 36.52 10.7336 36.04C10.819 35.4213 10.9363 34.7973 11.0856 34.168C11.2456 33.5387 11.5603 32.7973 12.0296 31.944C12.499 31.08 13.1496 30.296 13.9816 29.592C13.7363 29.0267 13.555 28.5733 13.4376 28.232C13.331 27.8907 13.283 27.5867 13.2936 27.32C13.3043 27.064 13.4323 26.8507 13.6776 26.68C13.923 26.4987 14.179 26.36 14.4456 26.264C14.819 26.1253 15.0803 26.056 15.2296 26.056C15.3043 26.056 15.347 26.072 15.3576 26.104C15.3683 26.1253 15.363 26.2 15.3416 26.328C15.331 26.4453 15.331 26.584 15.3416 26.744C15.3416 27.2347 15.715 28.328 16.4616 30.024C16.8776 30.984 17.283 32.184 17.6776 33.624C18.0723 35.064 18.3176 36.0667 18.4136 36.632C18.5203 37.2187 18.6483 37.688 18.7976 38.04H19.2936ZM12.7016 35.064C12.6803 35.384 12.6696 35.6347 12.6696 35.816C12.6696 36.7227 12.7816 37.464 13.0056 38.04H16.4296C16.355 37.432 16.275 36.904 16.1896 36.456C15.955 35.3147 15.6723 34.1947 15.3416 33.096C15.011 31.9867 14.6696 31.0587 14.3176 30.312C13.443 31.2293 12.9043 32.8133 12.7016 35.064ZM28.7409 38.616C28.8262 38.7333 28.6235 38.8453 28.1329 38.952C27.6529 39.0587 27.1782 39.112 26.7089 39.112L26.4369 39.096C26.2449 39.0853 26.1489 38.616 26.1489 37.688C26.1489 37.4427 26.1649 36.904 26.1969 36.072L26.3409 31.672C25.4875 32.344 24.7515 33.08 24.1329 33.88C23.5249 34.68 23.2209 35.4 23.2209 36.04V36.6C23.2529 37.08 23.3009 37.4907 23.3649 37.832C23.4289 38.1627 23.5302 38.424 23.6689 38.616C23.7542 38.7333 23.5515 38.8453 23.0609 38.952C22.5809 39.0587 22.1062 39.112 21.6369 39.112L21.3649 39.096C21.1729 39.0853 21.0769 38.6427 21.0769 37.768C21.0769 37.3307 21.0929 36.92 21.1249 36.536L21.1409 36.072C21.1409 35.8693 21.1622 35 21.2049 33.464C21.2795 31.544 21.3169 30.184 21.3169 29.384C21.3169 28.7333 21.2902 28.264 21.2369 27.976C21.1942 27.688 21.0662 27.4053 20.8529 27.128C20.7889 27.032 20.8849 26.8987 21.1409 26.728C21.4075 26.5573 21.7275 26.408 22.1009 26.28C22.4849 26.1413 22.7995 26.0827 23.0449 26.104C23.2369 26.1147 23.3329 26.616 23.3329 27.608C23.3329 28.0133 23.3169 28.52 23.2849 29.128C23.2849 29.1067 23.2742 29.6027 23.2529 30.616C23.2529 31.096 23.2422 31.8587 23.2209 32.904C23.6262 32.4773 24.0849 32.0933 24.5969 31.752C25.1195 31.4107 25.7062 31.0747 26.3569 30.744L26.3889 29.624C26.3889 28.8667 26.3622 28.3387 26.3089 28.04C26.2662 27.7307 26.1329 27.4267 25.9089 27.128C25.8449 27.032 25.9462 26.8987 26.2129 26.728C26.4795 26.5573 26.7995 26.408 27.1729 26.28C27.5569 26.1413 27.8715 26.0827 28.1169 26.104C28.3089 26.1147 28.4049 26.5893 28.4049 27.528C28.4049 27.7413 28.3835 28.2747 28.3409 29.128C28.3302 29.9173 28.3142 30.968 28.2929 32.28C28.2822 33.592 28.2769 34.664 28.2769 35.496C28.2769 36.296 28.3035 36.952 28.3569 37.464C28.4102 37.9653 28.5382 38.3493 28.7409 38.616ZM37.668 38.664C37.7533 38.7813 37.5507 38.8933 37.06 39C36.58 39.096 36.1053 39.144 35.636 39.144L35.364 39.128C35.172 39.1173 35.076 38.6693 35.076 37.784C35.076 37.528 35.092 36.968 35.124 36.104C35.1773 34.696 35.2093 33.672 35.22 33.032H32.34C32.3293 33.8 32.324 34.632 32.324 35.528C32.324 36.328 32.3507 36.984 32.404 37.496C32.4573 38.008 32.5853 38.3973 32.788 38.664C32.8733 38.7813 32.6707 38.8933 32.18 39C31.7 39.096 31.2253 39.144 30.756 39.144L30.484 39.128C30.292 39.1173 30.196 38.6533 30.196 37.736C30.196 37.48 30.212 36.936 30.244 36.104L30.276 35.368C30.2867 34.9733 30.3133 34.0667 30.356 32.648C30.4093 31.2293 30.436 30.232 30.436 29.656C30.436 28.8987 30.4093 28.3707 30.356 28.072C30.3133 27.7627 30.18 27.4587 29.956 27.16C29.892 27.064 29.9933 26.9307 30.26 26.76C30.5267 26.5893 30.8467 26.44 31.22 26.312C31.604 26.1733 31.9187 26.1147 32.164 26.136C32.356 26.1467 32.452 26.6213 32.452 27.56C32.452 27.784 32.4307 28.3227 32.388 29.176L32.356 32.088H35.252L35.3 29.416C35.3 28.7653 35.2733 28.296 35.22 28.008C35.1773 27.72 35.0493 27.4373 34.836 27.16C34.772 27.064 34.868 26.9307 35.124 26.76C35.3907 26.5893 35.7107 26.44 36.084 26.312C36.468 26.1733 36.7827 26.1147 37.028 26.136C37.22 26.1467 37.316 26.648 37.316 27.64C37.316 28.056 37.3 28.568 37.268 29.176L37.188 35.288C37.188 36.1627 37.2147 36.872 37.268 37.416C37.3213 37.96 37.4547 38.376 37.668 38.664ZM45.6232 33.784C46.0072 33.848 46.1992 34.1413 46.1992 34.664C46.1992 34.888 46.1672 35.1387 46.1032 35.416C45.9112 36.216 45.5752 36.856 45.0952 37.336C44.6259 37.816 44.0339 38.2267 43.3192 38.568C42.6152 38.8987 41.9379 39.0693 41.2872 39.08C41.2446 39.08 41.2126 39.0747 41.1912 39.064C41.1379 39.064 41.1112 39.0587 41.1112 39.048C41.0366 38.696 40.9246 38.36 40.7752 38.04C40.6366 37.7093 40.4339 37.2933 40.1672 36.792C39.8046 36.1307 39.5592 35.624 39.4312 35.272C39.0579 34.216 38.8712 33.1973 38.8712 32.216C38.8712 31.768 38.9086 31.3413 38.9832 30.936C39.2606 29.4853 39.8152 28.4187 40.6472 27.736C41.2979 27.224 42.0179 26.8293 42.8072 26.552C43.5966 26.264 44.3859 26.136 45.1752 26.168C45.2179 26.168 45.2392 26.2107 45.2392 26.296V26.312V26.376C45.2179 26.7813 45.0952 27.3947 44.8712 28.216C44.6579 29.0373 44.4979 29.6027 44.3912 29.912C44.3272 30.072 44.2366 30.152 44.1192 30.152C43.9806 30.152 43.9006 30.024 43.8792 29.768C43.8259 28.7973 43.5699 27.9227 43.1112 27.144C42.4072 27.3147 41.8686 27.7307 41.4952 28.392C41.0472 29.192 40.8339 30.1893 40.8552 31.384C40.8552 32.664 41.1592 33.944 41.7672 35.224C41.8846 35.48 42.0446 35.7947 42.2472 36.168C42.4712 36.5947 42.6419 36.9467 42.7592 37.224C42.8872 37.4907 42.9886 37.7733 43.0632 38.072C43.1806 37.9973 43.3086 37.88 43.4472 37.72C43.5859 37.56 43.6872 37.4107 43.7512 37.272C44.0072 36.8133 44.1672 36.3067 44.2312 35.752C44.2526 35.528 44.2259 35.3093 44.1512 35.096C44.0872 34.8827 43.9592 34.76 43.7672 34.728C43.6392 34.7067 43.6979 34.616 43.9432 34.456C44.1886 34.296 44.3219 34.2107 44.3432 34.2C44.3966 34.1787 44.5086 34.1253 44.6792 34.04C44.8606 33.944 45.0312 33.8747 45.1912 33.832C45.3619 33.7787 45.5059 33.7627 45.6232 33.784ZM55.8926 26.232C56.0526 26.232 56.1326 26.264 56.1326 26.328C56.1326 26.872 56.026 27.56 55.8126 28.392C55.61 29.2133 55.434 29.816 55.2846 30.2C55.2206 30.3493 55.1353 30.424 55.0286 30.424C54.9646 30.424 54.906 30.392 54.8526 30.328C54.81 30.264 54.7833 30.168 54.7726 30.04C54.7086 29.0267 54.4046 28.0667 53.8606 27.16H52.8366C52.8473 27.288 52.8526 27.4853 52.8526 27.752C52.8526 28.1253 52.8366 28.6 52.8046 29.176C52.794 29.5173 52.778 30.456 52.7566 31.992C52.7353 33.5173 52.7246 34.696 52.7246 35.528C52.7246 36.328 52.7513 36.984 52.8046 37.496C52.858 38.008 52.986 38.3973 53.1886 38.664C53.274 38.7813 53.0713 38.8933 52.5806 39C52.1006 39.096 51.626 39.144 51.1566 39.144L50.8846 39.128C50.6926 39.1173 50.5966 38.6533 50.5966 37.736C50.5966 37.48 50.6126 36.936 50.6446 36.104L50.6766 35.368C50.6873 34.9733 50.714 34.0667 50.7566 32.648C50.81 31.2293 50.8366 30.232 50.8366 29.656C50.8366 29.0693 50.81 28.584 50.7566 28.2C50.714 27.8053 50.6286 27.4587 50.5006 27.16H49.4926C49.0446 28.2053 48.794 29.1653 48.7406 30.04C48.73 30.296 48.65 30.424 48.5006 30.424C48.394 30.424 48.3086 30.3493 48.2446 30.2C48.0846 29.7627 47.898 29.1973 47.6846 28.504C47.482 27.8 47.3806 27.256 47.3806 26.872C47.3806 26.6907 47.5726 26.552 47.9566 26.456C48.3406 26.36 48.7726 26.296 49.2526 26.264C49.7326 26.232 49.9726 26.2213 49.9726 26.232H55.8926ZM63.9039 33.784C64.7679 35.0747 65.1999 36.5093 65.1999 38.088C65.1999 38.216 65.0772 38.3493 64.8319 38.488C64.5972 38.6267 64.3252 38.7493 64.0159 38.856C63.7065 38.952 63.4612 39 63.2799 39L57.9519 38.984C57.7599 38.9947 57.6639 38.552 57.6639 37.656C57.6639 37.4213 57.6799 36.888 57.7119 36.056L57.7439 35.304C57.7545 34.92 57.7812 34.0187 57.8239 32.6C57.8772 31.1813 57.9039 30.1893 57.9039 29.624C57.9039 28.8773 57.8612 28.28 57.7759 27.832C57.7012 27.3733 57.5519 26.9893 57.3279 26.68C57.2425 26.5627 57.4505 26.4507 57.9519 26.344C58.4532 26.2373 58.9385 26.184 59.4079 26.184H59.9359L64.5599 26.168L64.6079 26.216C64.5972 26.9307 64.4585 27.6187 64.1919 28.28C63.9359 28.9413 63.5679 29.5493 63.0879 30.104L62.8639 30.328C62.6399 30.5307 62.4585 30.7173 62.3199 30.888C62.1919 31.0587 62.1279 31.2293 62.1279 31.4C62.1279 31.4853 62.1545 31.5813 62.2079 31.688C62.3679 31.9547 62.6612 32.3227 63.0879 32.792C63.4719 33.2187 63.7439 33.5493 63.9039 33.784ZM63.1679 38.056C63.1572 37.4587 62.9919 36.7867 62.6719 36.04C62.3625 35.2827 61.9092 34.552 61.3119 33.848L60.9919 33.512C60.7359 33.256 60.5332 33.0267 60.3839 32.824C60.2452 32.6213 60.1759 32.4187 60.1759 32.216C60.1759 32.0347 60.2399 31.864 60.3679 31.704C60.4212 31.64 60.5972 31.4427 60.8959 31.112C61.2372 30.7493 61.4612 30.488 61.5679 30.328C62.1332 29.5067 62.4159 28.4827 62.4159 27.256C62.4159 27.1813 62.3945 27.1387 62.3519 27.128C62.3092 27.1067 62.2559 27.1013 62.1919 27.112C62.1385 27.112 62.1012 27.112 62.0799 27.112H59.9679H59.9039C59.9145 27.24 59.9199 27.4373 59.9199 27.704C59.9199 28.0773 59.9039 28.552 59.8719 29.128C59.8612 29.4587 59.8452 30.328 59.8239 31.736C59.8025 33.144 59.7919 34.312 59.7919 35.24C59.7919 35.9333 59.8025 36.4987 59.8239 36.936C59.8559 37.3733 59.9252 37.7467 60.0319 38.056H63.1679ZM73.6478 29.864C74.0104 30.7493 74.1918 31.672 74.1918 32.632C74.1918 32.792 74.1811 33.0213 74.1598 33.32C74.0531 34.568 73.7171 35.5867 73.1518 36.376C72.5118 37.272 71.5678 38.008 70.3198 38.584C70.0531 38.744 69.7171 38.8827 69.3118 39C68.9171 39.128 68.7144 39.16 68.7038 39.096C68.6078 38.744 68.4798 38.408 68.3198 38.088C68.1598 37.7573 67.9518 37.368 67.6958 36.92C67.2798 36.1947 66.9864 35.6027 66.8158 35.144C66.5278 34.3973 66.3838 33.5867 66.3838 32.712C66.3838 32.3387 66.4051 32.0027 66.4478 31.704C66.6184 30.3387 67.0024 29.272 67.5998 28.504C68.0478 27.928 68.6131 27.448 69.2958 27.064C69.9784 26.68 70.7251 26.3867 71.5358 26.184C71.6211 26.1627 71.6851 26.152 71.7278 26.152C71.8238 26.152 71.8771 26.1627 71.8878 26.184C71.9731 26.5253 72.0904 26.856 72.2398 27.176C72.3891 27.4853 72.6024 27.88 72.8798 28.36C72.9331 28.456 73.0451 28.6587 73.2158 28.968C73.3864 29.2773 73.5304 29.576 73.6478 29.864ZM71.7598 36.088C72.0691 35.288 72.2238 34.4293 72.2238 33.512C72.2238 32.3707 71.9624 31.2667 71.4398 30.2C71.2691 29.8587 71.0931 29.544 70.9118 29.256C70.8691 29.1813 70.7731 29.0107 70.6238 28.744C70.4744 28.4667 70.3411 28.2107 70.2238 27.976C70.1171 27.7307 70.0318 27.5013 69.9678 27.288C69.8291 27.4053 69.7118 27.528 69.6158 27.656C69.3064 28.0613 69.0664 28.488 68.8958 28.936C68.5438 29.8427 68.3678 30.8347 68.3678 31.912C68.3678 32.968 68.6024 33.9813 69.0718 34.952C69.1571 35.1227 69.3544 35.4853 69.6638 36.04C69.8344 36.3387 70.0051 36.6533 70.1758 36.984C70.3464 37.3147 70.4798 37.624 70.5758 37.912C71.0558 37.4747 71.4504 36.8667 71.7598 36.088Z" fill="white"/>
<path d="M22.5889 19.088C23.2396 19.1093 23.5649 19.184 23.5649 19.312C23.5649 19.696 23.4476 20.336 23.2129 21.232C22.9889 22.1387 22.8183 22.736 22.7009 23.024C22.6369 23.184 22.5516 23.264 22.4449 23.264C22.3809 23.264 22.3223 23.232 22.2689 23.168C22.2263 23.104 22.1996 23.008 22.1889 22.88C22.1569 22.2827 22.0503 21.7387 21.8689 21.248C21.6983 20.768 21.5063 20.352 21.2929 20H15.8849H15.6289C15.4369 19.968 15.3409 19.5307 15.3409 18.688C15.3409 18.4853 15.3516 18.1813 15.3729 17.776L15.3889 17.072L15.4209 16.336C15.4316 15.9413 15.4583 15.0347 15.5009 13.616C15.5543 12.1973 15.5809 11.2 15.5809 10.624C15.5809 9.86667 15.5543 9.33867 15.5009 9.04C15.4583 8.73067 15.3303 8.42667 15.1169 8.128C15.0529 8.032 15.1489 7.89867 15.4049 7.728C15.6716 7.55733 15.9916 7.408 16.3649 7.28C16.7489 7.14133 17.0636 7.08267 17.3089 7.104C17.5009 7.11467 17.5969 7.60533 17.5969 8.576C17.5969 8.85333 17.5863 9.19467 17.5649 9.6L17.5489 10.144C17.5383 10.4853 17.5223 11.4667 17.5009 13.088C17.4796 14.7093 17.4689 15.8827 17.4689 16.608C17.4689 17.184 17.4849 17.6693 17.5169 18.064C17.5489 18.448 17.6129 18.784 17.7089 19.072H20.2209C20.2103 18.6133 20.2209 18.1067 20.2529 17.552L20.2689 17.072C20.3863 13.3707 20.4449 11.136 20.4449 10.368C20.4449 9.728 20.4183 9.264 20.3649 8.976C20.3223 8.688 20.1996 8.40533 19.9969 8.128C19.9329 8.032 20.0289 7.89867 20.2849 7.728C20.5516 7.55733 20.8716 7.408 21.2449 7.28C21.6289 7.14133 21.9436 7.08267 22.1889 7.104C22.3809 7.11467 22.4769 7.60533 22.4769 8.576C22.4769 8.85333 22.4663 9.19467 22.4449 9.6L22.4289 10.144C22.4183 10.4747 22.4023 11.344 22.3809 12.752C22.3596 14.16 22.3489 15.328 22.3489 16.256C22.3489 16.9493 22.3596 17.5147 22.3809 17.952C22.4129 18.3893 22.4823 18.768 22.5889 19.088ZM31.5829 15.008C31.9776 15.0827 32.1749 15.3813 32.1749 15.904C32.1749 16.192 32.1269 16.4693 32.0309 16.736C31.8283 17.4293 31.4763 17.9947 30.9749 18.432C30.4629 18.88 29.8656 19.264 29.1829 19.584C28.5109 19.904 27.8709 20.0693 27.2629 20.08C27.2203 20.08 27.1883 20.0747 27.1669 20.064C27.1136 20.064 27.0869 20.0587 27.0869 20.048C27.0123 19.7067 26.8949 19.3653 26.7349 19.024C26.5749 18.6827 26.3669 18.2933 26.1109 17.856C25.7163 17.184 25.4496 16.656 25.3109 16.272C24.9376 15.2373 24.7509 14.2293 24.7509 13.248C24.7509 12.7787 24.7883 12.3413 24.8629 11.936C24.9803 11.3067 25.1883 10.7147 25.4869 10.16C25.7856 9.59467 26.1643 9.12 26.6229 8.736C27.2629 8.224 27.9776 7.82933 28.7669 7.552C29.5669 7.264 30.3616 7.136 31.1509 7.168C31.1936 7.168 31.2149 7.216 31.2149 7.312V7.376C31.2043 7.78133 31.0869 8.40533 30.8629 9.248C30.6389 10.08 30.4683 10.6347 30.3509 10.912C30.2869 11.072 30.2016 11.152 30.0949 11.152C30.0309 11.152 29.9776 11.12 29.9349 11.056C29.8923 10.9813 29.8656 10.8853 29.8549 10.768C29.7909 9.744 29.5296 8.864 29.0709 8.128C28.7936 8.21333 28.5109 8.36267 28.2229 8.576C27.9349 8.77867 27.6843 9.05067 27.4709 9.392C27.2149 9.81867 27.0229 10.2933 26.8949 10.816C26.7776 11.328 26.7189 11.8507 26.7189 12.384C26.7189 12.5547 26.7243 12.6773 26.7349 12.752L26.8309 12.688C27.1936 12.4747 27.6203 12.32 28.1109 12.224C28.6016 12.128 29.0923 12.08 29.5829 12.08C29.9989 12.08 30.3509 12.112 30.6389 12.176C30.9376 12.2293 31.0869 12.2987 31.0869 12.384C31.0869 13.0453 30.7403 13.7067 30.0469 14.368C29.8976 14.5173 29.7856 14.592 29.7109 14.592C29.6043 14.592 29.5349 14.4693 29.5029 14.224C29.4069 13.456 28.8949 13.072 27.9669 13.072C27.5829 13.072 27.1829 13.1307 26.7669 13.248C26.8736 14.208 27.1563 15.2 27.6149 16.224L28.1269 17.152C28.5963 17.92 28.8949 18.5493 29.0229 19.04C29.1616 18.9653 29.3483 18.8107 29.5829 18.576C29.8816 18.2347 30.0789 17.7493 30.1749 17.12C30.1856 17.056 30.1909 16.9493 30.1909 16.8C30.1909 16.288 30.0363 16.0053 29.7269 15.952C29.6309 15.9307 29.6789 15.8507 29.8709 15.712C30.0736 15.5627 30.2229 15.4667 30.3189 15.424C30.3723 15.4027 30.4843 15.3493 30.6549 15.264C30.8363 15.168 31.0069 15.0987 31.1669 15.056C31.3269 15.0027 31.4656 14.9867 31.5829 15.008ZM41.0821 19.664C41.1674 19.7813 40.9647 19.8933 40.4741 20C39.9941 20.096 39.5194 20.144 39.0501 20.144L38.7781 20.128C38.5861 20.1173 38.4901 19.6693 38.4901 18.784C38.4901 18.528 38.5061 17.968 38.5381 17.104C38.5914 15.696 38.6234 14.672 38.6341 14.032H35.7541C35.7434 14.8 35.7381 15.632 35.7381 16.528C35.7381 17.328 35.7647 17.984 35.8181 18.496C35.8714 19.008 35.9994 19.3973 36.2021 19.664C36.2874 19.7813 36.0847 19.8933 35.5941 20C35.1141 20.096 34.6394 20.144 34.1701 20.144L33.8981 20.128C33.7061 20.1173 33.6101 19.6533 33.6101 18.736C33.6101 18.48 33.6261 17.936 33.6581 17.104L33.6901 16.368C33.7007 15.9733 33.7274 15.0667 33.7701 13.648C33.8234 12.2293 33.8501 11.232 33.8501 10.656C33.8501 9.89867 33.8234 9.37067 33.7701 9.072C33.7274 8.76267 33.5941 8.45867 33.3701 8.16C33.3061 8.064 33.4074 7.93067 33.6741 7.76C33.9407 7.58933 34.2607 7.44 34.6341 7.312C35.0181 7.17333 35.3327 7.11467 35.5781 7.136C35.7701 7.14667 35.8661 7.62133 35.8661 8.56C35.8661 8.784 35.8447 9.32267 35.8021 10.176L35.7701 13.088H38.6661L38.7141 10.416C38.7141 9.76533 38.6874 9.296 38.6341 9.008C38.5914 8.72 38.4634 8.43733 38.2501 8.16C38.1861 8.064 38.2821 7.93067 38.5381 7.76C38.8047 7.58933 39.1247 7.44 39.4981 7.312C39.8821 7.17333 40.1967 7.11467 40.4421 7.136C40.6341 7.14667 40.7301 7.648 40.7301 8.64C40.7301 9.056 40.7141 9.568 40.6821 10.176L40.6021 16.288C40.6021 17.1627 40.6287 17.872 40.6821 18.416C40.7354 18.96 40.8687 19.376 41.0821 19.664ZM50.7973 7.232C50.9573 7.232 51.0373 7.264 51.0373 7.328C51.0373 7.872 50.9306 8.56 50.7173 9.392C50.5146 10.2133 50.3386 10.816 50.1893 11.2C50.1253 11.3493 50.04 11.424 49.9333 11.424C49.8693 11.424 49.8106 11.392 49.7573 11.328C49.7146 11.264 49.688 11.168 49.6773 11.04C49.6133 10.0267 49.3093 9.06667 48.7653 8.16H47.7413C47.752 8.288 47.7573 8.48533 47.7573 8.752C47.7573 9.12533 47.7413 9.6 47.7093 10.176C47.6986 10.5173 47.6826 11.456 47.6613 12.992C47.64 14.5173 47.6293 15.696 47.6293 16.528C47.6293 17.328 47.656 17.984 47.7093 18.496C47.7626 19.008 47.8906 19.3973 48.0933 19.664C48.1786 19.7813 47.976 19.8933 47.4853 20C47.0053 20.096 46.5306 20.144 46.0613 20.144L45.7893 20.128C45.5973 20.1173 45.5013 19.6533 45.5013 18.736C45.5013 18.48 45.5173 17.936 45.5493 17.104L45.5813 16.368C45.592 15.9733 45.6186 15.0667 45.6613 13.648C45.7146 12.2293 45.7413 11.232 45.7413 10.656C45.7413 10.0693 45.7146 9.584 45.6613 9.2C45.6186 8.80533 45.5333 8.45867 45.4053 8.16H44.3973C43.9493 9.20533 43.6986 10.1653 43.6453 11.04C43.6346 11.296 43.5546 11.424 43.4053 11.424C43.2986 11.424 43.2133 11.3493 43.1493 11.2C42.9893 10.7627 42.8026 10.1973 42.5893 9.504C42.3866 8.8 42.2853 8.256 42.2853 7.872C42.2853 7.69067 42.4773 7.552 42.8613 7.456C43.2453 7.36 43.6773 7.296 44.1573 7.264C44.6373 7.232 44.8773 7.22133 44.8773 7.232H50.7973ZM57.9446 14.816C58.0406 14.8267 57.9819 14.9067 57.7686 15.056C57.5659 15.2053 57.4272 15.3013 57.3526 15.344C56.8406 15.6213 56.4352 15.76 56.1366 15.76C55.7846 15.76 55.5072 15.68 55.3046 15.52C55.1019 15.3493 55.0006 15.1253 55.0006 14.848C55.0006 14.7307 55.0272 14.5813 55.0806 14.4C55.1339 14.24 55.1979 14.1013 55.2726 13.984C55.3579 13.8667 55.4752 13.7333 55.6246 13.584C56.0619 13.1787 56.4246 12.72 56.7126 12.208C57.0006 11.6853 57.2192 11.12 57.3686 10.512C57.5286 9.904 57.6086 9.29067 57.6086 8.672C57.6086 8.448 57.6032 8.28267 57.5926 8.176H54.8086C54.8192 8.51733 54.8139 8.99733 54.7926 9.616C54.7819 9.76533 54.7766 9.952 54.7766 10.176L54.7606 10.992C54.7606 11.984 54.7659 12.7733 54.7766 13.36L54.7926 15.744V16.288C54.7926 17.1627 54.8192 17.872 54.8726 18.416C54.9259 18.96 55.0539 19.376 55.2566 19.664C55.3526 19.7813 55.1552 19.8933 54.6646 20C54.1739 20.096 53.6939 20.144 53.2246 20.144L52.9526 20.128C52.7606 20.1173 52.6646 19.68 52.6646 18.816C52.6646 18.3573 52.6806 17.936 52.7126 17.552L52.7286 17.104C52.7392 16.2933 52.7499 15.2587 52.7606 14C52.7819 12.7307 52.7926 11.616 52.7926 10.656C52.7926 9.92 52.7499 9.32267 52.6646 8.864C52.5899 8.39467 52.4459 8.01067 52.2326 7.712C52.1472 7.59467 52.3499 7.48267 52.8406 7.376C53.3419 7.26933 53.8219 7.22133 54.2806 7.232H59.5286H59.6246C59.8699 7.232 59.9926 7.30133 59.9926 7.44C59.9926 8.67733 59.7899 9.67467 59.3846 10.432C58.9899 11.1893 58.6486 11.7227 58.3606 12.032C58.0726 12.3413 57.9019 12.5227 57.8486 12.576L57.5926 12.816C57.3579 13.0293 57.1979 13.2267 57.1126 13.408C57.0272 13.5893 56.9846 13.7813 56.9846 13.984C56.9846 14.2293 57.0646 14.4267 57.2246 14.576C57.3952 14.7253 57.6352 14.8053 57.9446 14.816Z" fill="white"/>
</svg>
